#N canvas -8 -8 1920 997 10;
#X obj 503 125 + 1;
#X obj 452 213 hradio 15 1 0 16 empty empty empty 0 -8 0 10 -262144
-1 -1 2;
#X obj 452 156 mod 16;
#X obj 552 364 mtof;
#X obj 551 435 *~;
#X obj 838 739 dac~;
#X msg 250 82 1;
#X msg 295 83 0;
#X obj 151 67 loadbang;
#X obj 250 49 select 1;
#X obj 452 36 tgl 15 1 empty empty empty 17 7 0 10 -262144 -1 -1 1
1;
#X obj 452 125 float;
#X floatatom 366 139 5 0 0 0 - - -;
#X floatatom 452 185 5 0 0 0 - - -;
#X obj 452 243 select 0 1 2 3 4 5 6 7 8 9 10 11 12 13 14 15;
#X obj 1155 84 r seqBang @hv_param;
#X obj 1155 118 bng 15 250 50 0 empty empty empty 17 7 0 10 -262144
-1 -1;
#X obj 1022 153 noise~;
#X obj 1134 196 *~ 0;
#X msg 1191 182 0;
#X obj 1700 446 bng 15 250 50 0 empty empty empty 17 7 0 10 -262144
-1 -1;
#X obj 1694 536 *~ 0;
#X obj 1635 507 phasor~;
#X obj 1635 482 mtof;
#X obj 1313 284 bng 15 250 50 0 empty empty empty 17 7 0 10 -262144
-1 -1;
#X obj 1239 395 osc~;
#X obj 1192 152 delay 90;
#X text 468 35 Click this toggle to play the BGM.;
#X text 1003 64 This is sound effect for attacking by the enemy.;
#X text 940 118 Click this bang to play sound effet;
#X text 1486 446 Click this bang to play sound effet;
#X text 1098 285 Click this bang to play sound effet;
#X text 1552 388 This is sound effect for dropping item.;
#X text 1185 236 This is sound effect for picking up item.;
#X obj 14 5 tgl 15 0 empty empty empty 17 7 0 10 -262144 -1 -1 1 1
;
#X msg 14 33 \; pd dsp \$1;
#X text 32 6 Click this toggle to turn on dsp.;
#X text 693 213 A 16nodes sequencer for BGM.;
#X text 429 37 BGM;
#X msg 1155 152 0.5;
#X obj 360 293 57;
#X obj 389 293 57;
#X obj 445 293 0;
#X obj 471 293 57;
#X obj 498 293 57;
#X obj 555 293 0;
#X obj 584 293 57;
#X obj 612 293 57;
#X obj 694 293 57;
#X obj 722 293 57;
#X obj 778 293 0;
#X obj 552 397 osc~;
#X obj 668 293 0;
#X obj 640 293 60;
#X obj 751 293 0;
#X obj 196 460 phasor~;
#X obj 436 568 *~;
#X obj 152 446 mtof;
#X obj 115 461 osc~;
#X obj 323 496 *~;
#X obj 417 293 60;
#X obj 526 293 52;
#X obj 219 257 + 1;
#X obj 173 257 float;
#X floatatom 232 297 5 0 0 0 - - -;
#X obj 133 310 mod 4;
#X floatatom 179 324 5 0 0 0 - - -;
#X obj 179 350 select 0 1 2 3;
#X obj 179 282 div 4;
#X obj 112 408 45;
#X obj 145 408 48;
#X obj 179 409 50;
#X obj 218 378 bng 15 250 50 0 empty empty empty 17 7 0 10 -262144
-1 -1;
#X obj 244 378 bng 15 250 50 0 empty empty empty 17 7 0 10 -262144
-1 -1;
#X obj 269 378 bng 15 250 50 0 empty empty empty 17 7 0 10 -262144
-1 -1;
#X floatatom 72 695 5 0 0 0 - - -;
#X msg 73 716 feedback \$1;
#X floatatom 68 892 5 0 0 1 dB - -;
#X msg 68 915 dry-gain \$1;
#X floatatom 205 710 5 0 0 1 dB - -;
#X msg 203 733 wet-gain \$1;
#X floatatom 201 887 10 0 0 1 Hz - -;
#X floatatom 318 707 10 0 0 1 Hz - -;
#X msg 203 908 lowcut \$1;
#X msg 319 731 highcut \$1;
#X obj 42 671 vsl 15 128 0 100 0 0 empty empty empty 0 -9 0 10 -262144
-1 -1 10160 1;
#X obj 40 849 vsl 15 128 0 100 0 0 empty empty empty 0 -9 0 10 -262144
-1 -1 8255 1;
#X obj 180 666 vsl 15 128 0 100 0 0 empty empty empty 0 -9 0 10 -262144
-1 -1 6350 1;
#X obj 181 848 vsl 15 128 0 25000 0 0 empty empty empty 0 -9 0 10 -262144
-1 -1 6604 1;
#X obj 298 665 vsl 15 128 0 25000 0 0 empty empty empty 0 -9 0 10 -262144
-1 -1 4064 1;
#X floatatom 324 883 10 0 0 1 Hz - -;
#X obj 300 846 vsl 15 128 0 25000 0 0 empty empty empty 0 -9 0 10 -262144
-1 -1 1524 1;
#X floatatom 451 712 5 0 0 0 - - -;
#X obj 425 661 vsl 15 128 0 100 0 0 empty empty empty 0 -9 0 10 -262144
-1 -1 7620 1;
#X msg 450 735 damp \$1;
#X msg 324 910 crossfreq \$1;
#X floatatom 446 876 5 0 0 0 - - -;
#X obj 421 842 vsl 15 128 0 2800 0 0 empty empty empty 0 -9 0 10 -262144
-1 -1 0 1;
#X msg 445 902 predelay_ms \$1;
#X obj 1275 442 *~;
#X obj 1239 360 mtof;
#X obj 1280 311 bng 15 250 50 0 empty empty empty 17 7 0 10 -262144
-1 -1;
#X obj 1350 297 delay 75;
#X obj 1196 325 84;
#X obj 1231 324 88;
#X obj 1411 346 91;
#X obj 1442 334 bng 15 250 50 0 empty empty empty 17 7 0 10 -262144
-1 -1;
#X obj 1442 312 delay 75;
#X msg 1306 375 0.7 100 \, 0 100 50;
#X obj 1420 429 osc~;
#X obj 1420 403 mtof;
#X obj 1301 467 *~;
#X obj 1420 374 2;
#X floatatom 568 72 5 0 0 0 - - -;
#X text 748 59 Tempo change;
#X obj 1313 257 r seqBang2 @hv_param;
#X obj 1700 417 r seqBang3 @hv_param;
#X obj 322 454 hv.vline;
#X obj 1293 409 hv.vline;
#X obj 897 280 hv.vline;
#X msg 300 819 3000;
#X msg 428 630 60;
#X msg 421 816 0;
#X obj 62 574 loadbang;
#X obj 551 724 hv.reverb;
#X msg 305 421 0.15 100 \, 0 1000 150;
#X msg 35 819 65;
#X msg 45 626 80;
#X msg 180 624 50;
#X msg 301 626 8000;
#X msg 177 823 13000;
#X msg 897 228 600 100 \, 0 50 75;
#X floatatom 1353 691 5 0 0 0 - - -;
#X msg 1354 712 feedback \$1;
#X floatatom 1349 888 5 0 0 1 dB - -;
#X msg 1349 911 dry-gain \$1;
#X floatatom 1486 706 5 0 0 1 dB - -;
#X msg 1484 729 wet-gain \$1;
#X floatatom 1482 883 10 0 0 1 Hz - -;
#X floatatom 1599 703 10 0 0 1 Hz - -;
#X msg 1484 904 lowcut \$1;
#X msg 1600 727 highcut \$1;
#X obj 1323 667 vsl 15 128 0 100 0 0 empty empty empty 0 -9 0 10 -262144
-1 -1 10160 1;
#X obj 1321 845 vsl 15 128 0 100 0 0 empty empty empty 0 -9 0 10 -262144
-1 -1 8255 1;
#X obj 1461 662 vsl 15 128 0 100 0 0 empty empty empty 0 -9 0 10 -262144
-1 -1 11430 1;
#X obj 1462 844 vsl 15 128 0 25000 0 0 empty empty empty 0 -9 0 10
-262144 -1 -1 6604 1;
#X obj 1579 661 vsl 15 128 0 25000 0 0 empty empty empty 0 -9 0 10
-262144 -1 -1 4064 1;
#X floatatom 1605 879 10 0 0 1 Hz - -;
#X obj 1581 842 vsl 15 128 0 25000 0 0 empty empty empty 0 -9 0 10
-262144 -1 -1 1524 1;
#X floatatom 1732 708 5 0 0 0 - - -;
#X obj 1706 657 vsl 15 128 0 100 0 0 empty empty empty 0 -9 0 10 -262144
-1 -1 7620 1;
#X msg 1731 731 damp \$1;
#X msg 1605 906 crossfreq \$1;
#X floatatom 1727 872 5 0 0 0 - - -;
#X obj 1702 838 vsl 15 128 0 2800 0 0 empty empty empty 0 -9 0 10 -262144
-1 -1 0 1;
#X msg 1726 898 predelay_ms \$1;
#X msg 1581 815 3000;
#X msg 1709 626 60;
#X msg 1702 812 0;
#X obj 1343 570 loadbang;
#X obj 1169 726 hv.reverb;
#X msg 1316 815 65;
#X msg 1326 622 80;
#X msg 1582 622 8000;
#X msg 1458 819 13000;
#X msg 1700 505 200;
#X obj 1733 466 delay 100;
#X obj 1817 469 delay 100;
#X msg 1739 504 0;
#X msg 1461 620 90;
#X obj 1635 459 70;
#X msg 720 58 120;
#X obj 452 85 metro 200;
#X msg 681 58 200;
#X connect 0 0 11 1;
#X connect 1 0 14 0;
#X connect 1 0 131 0;
#X connect 2 0 13 0;
#X connect 3 0 51 0;
#X connect 4 0 124 0;
#X connect 8 0 6 0;
#X connect 9 0 6 0;
#X connect 9 1 7 0;
#X connect 10 0 9 0;
#X connect 10 0 172 0;
#X connect 11 0 2 0;
#X connect 11 0 0 0;
#X connect 11 0 12 0;
#X connect 13 0 1 0;
#X connect 14 0 63 0;
#X connect 14 0 40 0;
#X connect 14 1 41 0;
#X connect 14 2 60 0;
#X connect 14 3 42 0;
#X connect 14 4 43 0;
#X connect 14 5 44 0;
#X connect 14 6 61 0;
#X connect 14 6 63 0;
#X connect 14 7 45 0;
#X connect 14 8 46 0;
#X connect 14 9 47 0;
#X connect 14 10 53 0;
#X connect 14 11 52 0;
#X connect 14 12 48 0;
#X connect 14 13 49 0;
#X connect 14 14 54 0;
#X connect 14 15 50 0;
#X connect 15 0 16 0;
#X connect 16 0 39 0;
#X connect 16 0 26 0;
#X connect 17 0 18 0;
#X connect 18 0 5 1;
#X connect 18 0 5 0;
#X connect 19 0 18 1;
#X connect 20 0 165 0;
#X connect 20 0 166 0;
#X connect 20 0 170 0;
#X connect 21 0 160 0;
#X connect 22 0 21 0;
#X connect 23 0 22 0;
#X connect 24 0 108 0;
#X connect 24 0 102 0;
#X connect 24 0 103 0;
#X connect 24 0 112 0;
#X connect 25 0 99 0;
#X connect 26 0 19 0;
#X connect 34 0 35 0;
#X connect 39 0 18 1;
#X connect 40 0 3 0;
#X connect 41 0 3 0;
#X connect 42 0 3 0;
#X connect 43 0 3 0;
#X connect 44 0 3 0;
#X connect 45 0 3 0;
#X connect 46 0 3 0;
#X connect 47 0 3 0;
#X connect 48 0 3 0;
#X connect 49 0 3 0;
#X connect 50 0 3 0;
#X connect 51 0 4 0;
#X connect 52 0 3 0;
#X connect 53 0 3 0;
#X connect 54 0 3 0;
#X connect 55 0 59 0;
#X connect 56 0 5 0;
#X connect 56 0 5 1;
#X connect 57 0 58 0;
#X connect 57 0 55 0;
#X connect 58 0 56 0;
#X connect 59 0 56 1;
#X connect 60 0 3 0;
#X connect 61 0 3 0;
#X connect 62 0 63 1;
#X connect 63 0 62 0;
#X connect 63 0 68 0;
#X connect 64 0 65 0;
#X connect 65 0 66 0;
#X connect 66 0 67 0;
#X connect 67 0 72 0;
#X connect 67 1 70 0;
#X connect 67 1 73 0;
#X connect 67 2 71 0;
#X connect 67 2 74 0;
#X connect 67 3 69 0;
#X connect 67 3 72 0;
#X connect 68 0 64 0;
#X connect 69 0 57 0;
#X connect 70 0 57 0;
#X connect 71 0 57 0;
#X connect 72 0 69 0;
#X connect 72 0 125 0;
#X connect 73 0 70 0;
#X connect 73 0 125 0;
#X connect 74 0 71 0;
#X connect 74 0 125 0;
#X connect 75 0 76 0;
#X connect 76 0 124 1;
#X connect 77 0 78 0;
#X connect 78 0 124 1;
#X connect 79 0 80 0;
#X connect 80 0 124 1;
#X connect 81 0 83 0;
#X connect 82 0 84 0;
#X connect 83 0 124 1;
#X connect 84 0 124 1;
#X connect 85 0 75 0;
#X connect 86 0 77 0;
#X connect 87 0 79 0;
#X connect 88 0 81 0;
#X connect 89 0 82 0;
#X connect 90 0 95 0;
#X connect 91 0 90 0;
#X connect 92 0 94 0;
#X connect 93 0 92 0;
#X connect 94 0 124 1;
#X connect 95 0 124 1;
#X connect 96 0 98 0;
#X connect 97 0 96 0;
#X connect 98 0 124 1;
#X connect 99 0 111 0;
#X connect 100 0 25 0;
#X connect 101 0 108 0;
#X connect 101 0 104 0;
#X connect 101 0 112 0;
#X connect 102 0 101 0;
#X connect 102 0 107 0;
#X connect 103 0 100 0;
#X connect 104 0 100 0;
#X connect 105 0 100 0;
#X connect 106 0 105 0;
#X connect 106 0 112 0;
#X connect 107 0 106 0;
#X connect 108 0 118 0;
#X connect 109 0 111 1;
#X connect 110 0 109 0;
#X connect 111 0 5 1;
#X connect 111 0 5 0;
#X connect 112 0 110 0;
#X connect 113 0 172 1;
#X connect 115 0 24 0;
#X connect 116 0 20 0;
#X connect 117 0 59 1;
#X connect 118 0 99 1;
#X connect 119 0 4 1;
#X connect 120 0 91 0;
#X connect 121 0 93 0;
#X connect 122 0 97 0;
#X connect 123 0 127 0;
#X connect 123 0 126 0;
#X connect 123 0 128 0;
#X connect 123 0 129 0;
#X connect 123 0 121 0;
#X connect 123 0 130 0;
#X connect 123 0 120 0;
#X connect 123 0 122 0;
#X connect 124 0 5 0;
#X connect 124 1 5 1;
#X connect 125 0 117 0;
#X connect 126 0 86 0;
#X connect 127 0 85 0;
#X connect 128 0 87 0;
#X connect 129 0 89 0;
#X connect 130 0 88 0;
#X connect 131 0 119 0;
#X connect 132 0 133 0;
#X connect 133 0 160 1;
#X connect 134 0 135 0;
#X connect 135 0 160 1;
#X connect 136 0 137 0;
#X connect 137 0 160 1;
#X connect 138 0 140 0;
#X connect 139 0 141 0;
#X connect 140 0 160 1;
#X connect 141 0 160 1;
#X connect 142 0 132 0;
#X connect 143 0 134 0;
#X connect 144 0 136 0;
#X connect 145 0 138 0;
#X connect 146 0 139 0;
#X connect 147 0 152 0;
#X connect 148 0 147 0;
#X connect 149 0 151 0;
#X connect 150 0 149 0;
#X connect 151 0 160 1;
#X connect 152 0 160 1;
#X connect 153 0 155 0;
#X connect 154 0 153 0;
#X connect 155 0 160 1;
#X connect 156 0 148 0;
#X connect 157 0 150 0;
#X connect 158 0 154 0;
#X connect 159 0 162 0;
#X connect 159 0 161 0;
#X connect 159 0 169 0;
#X connect 159 0 163 0;
#X connect 159 0 157 0;
#X connect 159 0 164 0;
#X connect 159 0 156 0;
#X connect 159 0 158 0;
#X connect 160 0 5 0;
#X connect 160 1 5 1;
#X connect 161 0 143 0;
#X connect 162 0 142 0;
#X connect 163 0 146 0;
#X connect 164 0 145 0;
#X connect 165 0 21 1;
#X connect 166 0 168 0;
#X connect 168 0 21 1;
#X connect 169 0 144 0;
#X connect 170 0 23 0;
#X connect 171 0 113 0;
#X connect 172 0 11 0;
#X connect 173 0 113 0;
